<svg height="327.68" viewBox="0 0 1310 327.68" width="1310" xmlns="http://www.w3.org/2000/svg"><path d="m122.736 236.052c-13.128-13.127-9.216-35.307 7.613-43.156 1.613 2.273 3.42 4.444 5.458 6.477 19.625 19.625 51.441 19.625 71.066 0 6.072-6.073 10.265-13.312 12.574-20.992 5.909-19.641 19.431-36.091 38.017-44.759l1.52-.712c18.381-8.566 40.151-4.726 54.492 9.61 11.725 11.725 11.725 30.915 0 42.64l-50.893 50.892c-38.456 38.457-101.386 38.457-139.847 0"/><path d="m206.873 128.307c-19.625-19.625-51.441-19.625-71.066 0-6.072 6.073-10.265 13.307-12.575 20.992-5.908 19.641-19.43 36.091-38.016 44.759l-1.52.712c-18.381 8.566-40.151 4.726-54.492-9.61-11.725-11.725-11.725-30.915 0-42.64l50.892-50.892c38.457-38.457 101.387-38.457 139.848 0 13.128 13.127 9.216 35.307-7.613 43.156-1.613-2.273-3.42-4.444-5.458-6.477"/><path d="m150.99 184.192c11.239 11.238 29.461 11.238 40.704 0 11.239-11.239 11.239-29.466 0-40.704-11.243-11.239-29.465-11.239-40.704 0-11.243 11.238-11.243 29.465 0 40.704"/><text transform="translate(816.135 163.84)"><tspan font-family="Nunito-Bold" font-size="125" x="-464.562" y="40.16">osteopathes.pro</tspan></text></svg>