<svg height="64" viewBox="0 0 64 64" width="64" xmlns="http://www.w3.org/2000/svg"><path d="m22.507 46.104c-2.564-2.564-1.8-6.896 1.487-8.429.315.444.668.868 1.066 1.265 3.833 3.833 10.047 3.833 13.88 0 1.186-1.186 2.005-2.6 2.456-4.1 1.154-3.836 3.795-7.049 7.425-8.742l.297-.139c3.59-1.673 7.842-.923 10.643 1.877 2.29 2.29 2.29 6.038 0 8.328l-9.94 9.94c-7.511 7.511-19.802 7.511-27.314 0" fill="#fff"/><path d="m38.94 25.06c-3.833-3.833-10.047-3.833-13.88 0-1.186 1.186-2.005 2.599-2.456 4.1-1.154 3.836-3.795 7.049-7.425 8.742l-.297.139c-3.59 1.673-7.842.923-10.643-1.877-2.29-2.29-2.29-6.038 0-8.328l9.94-9.94c7.511-7.511 19.802-7.511 27.314 0 2.564 2.564 1.8 6.896-1.487 8.429-.315-.444-.668-.868-1.066-1.265" fill="#fff"/><path d="m27.995 36.096c2.195 2.195 5.754 2.195 7.95 0 2.195-2.195 2.195-5.755 0-7.95-2.196-2.195-5.755-2.195-7.95 0-2.196 2.195-2.196 5.755 0 7.95" fill="#eee"/></svg>